<svg xmlns="http://www.w3.org/2000/svg" viewBox="0 0 400 300" role="img" aria-label="">
  <rect width="400" height="300" fill="#f8f8f8"/>
  <rect x="32" y="34" width="150" height="230" fill="#fff" stroke="#111" stroke-width="3"/>
  <rect x="218" y="34" width="150" height="230" fill="#fff" stroke="#111" stroke-width="3"/>
  <line x1="58" y1="72" x2="150" y2="72" stroke="#111" stroke-width="8"/>
  <line x1="244" y1="72" x2="338" y2="72" stroke="#111" stroke-width="8"/>
  <g stroke="#8a8a8a" stroke-width="5">
    <line x1="58" y1="108" x2="154" y2="108"/>
    <line x1="58" y1="132" x2="144" y2="132"/>
    <line x1="58" y1="156" x2="158" y2="156"/>
    <line x1="58" y1="180" x2="136" y2="180"/>
    <line x1="244" y1="108" x2="334" y2="108"/>
    <line x1="244" y1="132" x2="320" y2="132"/>
    <line x1="244" y1="156" x2="340" y2="156"/>
    <line x1="244" y1="180" x2="318" y2="180"/>
  </g>
  <path d="M190 84h28M190 132h28M190 180h28" stroke="#111" stroke-width="7"/>
  <circle cx="204" cy="222" r="17" fill="#111"/>
</svg>
